<?xml version="1.0" standalone="no"?>
<!DOCTYPE svg PUBLIC "-//W3C//DTD SVG 20010904//EN"
 "http://www.w3.org/TR/2001/REC-SVG-20010904/DTD/svg10.dtd">
<svg version="1.0" xmlns="http://www.w3.org/2000/svg"
 width="250.000000pt" height="250.000000pt" viewBox="0 0 250.000000 250.000000"
 preserveAspectRatio="xMidYMid meet">
<metadata>
Created by potrace 1.14, written by Peter Selinger 2001-2017
</metadata>
<g transform="translate(0.000000,250.000000) scale(0.100000,-0.100000)"
fill="#000000" stroke="none">
<path d="M2351 2414 c7 -8 7 -14 -1 -19 -6 -3 -8 -11 -5 -16 4 -5 1 -9 -5 -9
-7 0 -9 -8 -5 -21 5 -14 4 -19 -4 -15 -7 5 -9 1 -5 -8 3 -9 9 -14 13 -11 10 6
7 -33 -4 -42 -4 -5 -6 -3 -2 2 13 25 -43 60 -57 36 -3 -4 6 -7 19 -5 l25 2
-20 -25 c-11 -14 -18 -29 -15 -33 3 -4 -3 -7 -13 -6 -12 1 -16 -6 -15 -24 2
-21 1 -22 -5 -6 -6 14 -11 16 -16 8 -4 -7 -4 -16 -1 -22 3 -6 -1 -7 -10 -4
-12 5 -10 12 12 39 16 17 32 30 36 27 5 -2 3 6 -3 19 -17 33 -17 33 -17 4 0
-15 -6 -32 -13 -38 -10 -10 -12 -8 -7 6 4 11 3 16 -3 12 -6 -4 -9 -14 -8 -23
2 -12 -3 -16 -17 -14 -16 2 -17 1 -5 -7 13 -9 12 -11 -5 -11 -18 -1 -18 -2 3
-10 12 -5 22 -17 21 -27 0 -16 -1 -16 -9 2 -6 13 -9 15 -9 5 -1 -13 -2 -13
-11 0 -9 13 -10 13 -11 0 0 -10 -3 -8 -9 5 -5 11 -9 15 -9 8 -2 -20 11 -43 20
-37 5 3 6 -2 2 -11 -4 -12 -8 -13 -13 -5 -5 8 -14 3 -29 -16 -17 -22 -19 -30
-9 -43 7 -8 -1 -5 -19 7 -17 12 -35 22 -40 22 -4 0 -3 -4 3 -8 6 -4 14 -20 18
-37 4 -18 3 -25 -2 -17 -12 18 -29 -5 -26 -35 0 -12 -2 -20 -7 -17 -4 2 -5 12
-2 20 5 14 3 14 -15 3 -11 -7 -18 -18 -15 -24 4 -5 -3 -2 -14 8 -19 17 -21 17
-42 0 -19 -16 -21 -22 -12 -46 10 -26 9 -27 -14 -23 -17 3 -23 1 -19 -6 5 -8
1 -9 -12 -4 -10 4 -15 4 -11 0 4 -4 -1 -13 -10 -19 -14 -11 -20 -10 -31 4 -11
14 -12 13 -3 -5 6 -12 10 -38 9 -58 -1 -42 -12 -39 -13 4 0 17 -5 31 -9 33
-11 2 -17 -24 -18 -75 -1 -33 -3 -35 -15 -20 -13 15 -13 15 -7 -7 5 -21 4 -22
-9 -10 -15 14 -12 39 4 39 5 0 9 5 9 10 0 6 -8 5 -19 -2 -11 -7 -19 -17 -18
-22 1 -6 -4 -10 -10 -9 -18 4 -16 -14 3 -21 10 -4 13 -2 8 6 -4 7 -3 8 4 4 7
-4 12 -11 12 -17 0 -10 -28 -8 -46 4 -13 7 -41 -20 -31 -30 3 -3 0 -18 -8 -33
-8 -15 -12 -30 -9 -33 3 -3 -4 -10 -15 -16 -13 -8 -18 -17 -14 -29 7 -18 5
-17 -17 12 -12 16 -12 18 -1 11 10 -5 12 -4 7 3 -5 8 -13 9 -25 2 -12 -6 -22
-5 -32 3 -7 7 -5 1 6 -12 l20 -24 -21 5 c-15 4 -21 1 -20 -11 0 -8 -5 -16 -11
-17 -24 -3 -25 -4 -14 -18 8 -10 9 -16 1 -21 -5 -3 -10 -1 -10 6 0 7 -3 10 -6
6 -3 -3 -3 -11 1 -17 5 -8 11 -8 21 1 7 6 11 16 7 22 -4 6 -1 7 7 2 9 -5 11
-4 6 3 -5 8 -1 10 10 5 11 -4 13 -8 6 -11 -7 -2 -12 -8 -12 -13 0 -6 5 -7 12
-3 7 4 8 3 4 -5 -4 -6 -12 -9 -17 -5 -5 3 -16 0 -24 -6 -12 -10 -18 -10 -30 0
-8 7 -12 17 -8 24 3 6 2 7 -2 3 -13 -11 -15 -38 -3 -31 6 4 9 1 6 -6 -4 -12
-22 -19 -55 -22 -9 -1 -9 -5 -3 -13 10 -12 4 -25 -12 -25 -5 0 -6 4 -3 10 4 6
-1 7 -11 3 -15 -6 -15 -7 1 -15 15 -9 15 -11 -2 -24 -15 -12 -16 -15 -3 -23 8
-6 12 -13 8 -16 -3 -3 -13 1 -22 10 -15 15 -16 15 -16 -1 0 -10 -3 -14 -7 -11
-3 4 -13 -2 -21 -14 -10 -15 -17 -18 -25 -10 -14 14 -27 14 -27 0 0 -5 5 -7
11 -3 7 4 10 1 7 -7 -3 -8 -10 -14 -15 -14 -6 0 -15 -4 -20 -9 -5 -6 -2 -6 6
-1 11 6 13 4 8 -11 -5 -14 -2 -12 13 6 11 14 20 21 20 16 0 -6 7 -1 15 10 8
10 15 14 15 8 0 -14 -25 -36 -32 -29 -5 5 -21 -25 -32 -57 -3 -12 -11 -15 -22
-11 -11 4 -15 3 -10 -5 3 -6 2 -13 -3 -16 -5 -4 -13 -1 -17 5 -4 7 -3 9 2 6 5
-3 10 3 10 14 0 18 -2 18 -19 -5 -10 -15 -23 -24 -28 -21 -5 4 -6 -1 -3 -10 4
-11 2 -14 -9 -9 -8 3 -17 1 -21 -4 -11 -18 34 -5 49 14 8 10 14 15 14 9 0 -18
-27 -47 -38 -41 -6 4 -8 -2 -6 -15 2 -12 2 -19 -2 -15 -3 3 -12 1 -19 -5 -15
-12 -7 -42 9 -32 6 4 7 1 2 -7 -6 -10 -11 -10 -20 3 -7 10 -17 17 -22 17 -14
0 -25 -44 -13 -48 15 -5 12 -22 -2 -20 -7 2 -12 -3 -10 -10 1 -8 -2 -11 -8 -7
-8 5 -8 11 -1 19 11 13 5 26 -11 26 -5 0 -6 -6 -2 -12 6 -10 4 -10 -8 0 -9 7
-14 21 -11 32 3 11 1 20 -4 20 -11 0 -10 -49 1 -71 4 -8 1 -6 -7 4 -11 13 -16
15 -20 5 -2 -7 -4 -1 -4 14 0 17 4 26 11 22 6 -3 2 2 -8 10 -12 9 -22 12 -26
7 -3 -6 -11 -6 -20 -1 -13 9 -13 10 0 11 41 2 61 6 67 14 5 4 -3 4 -16 0 -14
-4 -21 -3 -18 2 4 6 -5 15 -18 21 -17 8 -23 17 -19 29 5 15 4 15 -4 3 -6 -8
-8 -18 -6 -22 3 -4 -2 -5 -10 -2 -18 7 -28 32 -19 46 3 7 1 8 -5 4 -7 -4 -12
-2 -12 3 0 6 -5 11 -11 11 -5 0 -7 -4 -4 -10 10 -17 -4 -11 -25 10 -15 15 -16
20 -6 20 8 0 18 4 21 10 4 6 -6 8 -23 6 -19 -2 -29 2 -29 10 0 7 4 11 9 8 19
-12 6 16 -14 30 -27 19 -42 21 -32 4 6 -10 4 -10 -7 0 -16 15 -33 16 -23 0 4
-7 3 -8 -5 -4 -6 4 -9 11 -6 16 10 16 -6 39 -23 33 -15 -4 -15 -3 -2 6 11 8
18 7 26 -4 6 -8 15 -11 19 -7 5 4 5 1 0 -7 -6 -10 -4 -12 5 -6 9 6 11 4 5 -5
-5 -8 -4 -11 3 -6 15 9 4 33 -18 39 -13 3 -18 12 -16 31 3 21 1 24 -10 15 -17
-14 -19 2 -2 19 8 8 8 12 1 12 -19 0 -25 -34 -8 -46 13 -9 13 -13 2 -17 -8 -3
-20 -2 -27 3 -9 5 -9 9 -1 11 8 3 7 11 -4 24 -12 14 -15 15 -12 4 3 -9 -1 -16
-8 -16 -8 0 -11 7 -7 15 3 10 1 13 -6 8 -18 -11 -14 0 5 15 9 8 14 9 11 4 -4
-6 1 -11 11 -11 10 0 18 5 18 11 0 7 -14 11 -31 10 -17 -2 -37 2 -43 7 -9 8
-13 6 -13 -5 0 -9 -4 -18 -9 -21 -12 -8 -9 27 4 36 5 4 14 3 20 -2 6 -5 17 -5
25 2 12 8 12 9 -3 4 -20 -6 -22 4 -4 24 10 12 9 12 -6 1 -17 -13 -75 -25 -63
-14 3 3 -1 11 -10 17 -13 10 -13 12 5 12 11 0 19 -3 18 -6 -2 -6 8 -10 23 -10
6 0 10 5 10 10 0 6 -3 9 -7 9 -21 -3 -24 3 -12 19 12 15 12 16 -2 5 -9 -7 -20
-9 -24 -5 -5 4 -4 0 0 -8 7 -12 6 -13 -6 -3 -11 9 -18 10 -27 1 -8 -8 -10 -6
-7 8 2 11 4 19 6 19 1 0 3 10 4 22 1 12 -1 20 -6 18 -4 -3 -12 2 -17 11 -8 15
-10 15 -15 0 -5 -11 -3 -15 5 -10 7 5 8 3 3 -6 -6 -9 -4 -11 5 -5 9 6 11 4 5
-5 -6 -9 -4 -11 6 -5 11 6 12 5 2 -5 -10 -11 -16 -9 -32 11 -18 22 -18 26 -4
42 10 10 12 17 5 17 -7 0 -12 -4 -12 -10 0 -5 -4 -10 -9 -10 -5 0 -7 10 -5 23
4 20 4 20 -4 2 -5 -11 -7 -26 -5 -32 3 -7 -1 -13 -8 -13 -7 0 -9 3 -5 7 3 4
-5 12 -19 17 l-26 11 23 14 c21 13 22 13 9 -2 -11 -15 -11 -17 1 -17 8 0 14
10 14 24 0 21 -3 23 -19 14 -20 -11 -42 7 -30 25 6 11 -27 48 -38 42 -4 -3
-11 0 -15 6 -4 8 -3 9 4 5 7 -4 12 -2 12 4 0 7 -7 10 -15 6 -8 -3 -25 -1 -37
5 -20 8 -20 9 -3 6 15 -3 21 1 22 14 2 20 -12 26 -22 9 -3 -5 -11 -10 -16 -10
-5 0 -2 11 7 25 9 14 21 22 28 18 6 -4 5 1 -3 10 -16 20 -22 22 -19 6 2 -6 -3
-14 -11 -17 -8 -3 -11 0 -7 7 5 7 1 9 -9 4 -13 -4 -14 -8 -4 -14 8 -4 10 -11
6 -16 -13 -13 -27 20 -15 34 8 10 7 12 -5 8 -8 -4 -18 -1 -23 6 -4 8 -3 10 4
5 8 -5 10 -1 5 10 -5 14 -8 13 -20 -7 -12 -21 -13 -21 -8 -3 3 13 -3 31 -16
48 -17 21 -19 30 -9 36 8 5 9 9 1 14 -11 7 -12 6 -16 -31 -1 -14 2 -20 9 -16
6 4 5 -1 -3 -10 -14 -18 -26 -23 -16 -8 3 5 1 12 -4 16 -6 3 -8 13 -5 23 4 11
-2 8 -16 -8 -18 -21 -20 -21 -11 -4 12 25 6 35 -17 27 -10 -4 -6 3 8 15 21 18
22 21 8 22 -10 0 -18 -6 -18 -12 0 -8 -5 -6 -11 4 -5 9 -15 16 -22 14 -6 -1
-9 -1 -4 1 4 3 7 9 7 14 0 6 -5 7 -10 4 -6 -3 -10 -1 -10 4 0 17 18 13 32 -8
9 -12 19 -17 27 -12 9 6 7 10 -9 14 -14 4 -19 10 -14 18 4 7 3 10 -4 5 -5 -3
-12 0 -15 6 -3 10 -7 10 -19 1 -19 -16 -28 -8 -22 23 2 13 0 24 -6 24 -5 0
-10 -4 -10 -10 0 -5 -5 -10 -10 -10 -6 0 -9 3 -9 8 4 21 -3 24 -15 6 -14 -18
-14 -18 -13 0 1 10 -4 21 -11 23 -6 3 -10 -1 -9 -9 2 -7 2 -10 0 -6 -2 4 -12
5 -21 2 -15 -5 -15 -4 1 6 9 6 15 15 12 21 -9 13 9 11 23 -3 7 -7 12 -8 12 -2
0 5 -9 15 -20 22 -14 8 -20 9 -20 1 0 -6 -8 -8 -17 -5 -15 5 -15 4 1 -9 17
-13 17 -15 3 -15 -15 0 -16 -76 -16 -1045 l1 -1045 1249 0 c1302 0 1274 -1
1237 39 -9 10 -9 12 -1 7 9 -5 12 257 12 1158 l0 1164 -80 -1 c-61 0 -76 -3
-68 -13z m22 -24 c-3 -12 0 -20 8 -20 8 0 6 -5 -6 -13 -11 -9 -15 -19 -11 -28
4 -8 0 -5 -8 5 -12 14 -13 23 -5 33 6 7 8 13 4 13 -4 0 -2 6 4 13 6 8 7 18 3
22 -4 5 -2 5 5 2 6 -4 9 -16 6 -27z m107 14 c0 -8 -19 -13 -24 -6 -3 5 1 9 9
9 8 0 15 -2 15 -3z m-485 -404 c-3 -5 -2 -10 3 -10 5 0 9 -6 9 -14 0 -8 -5
-14 -11 -13 -6 1 -10 -4 -8 -11 1 -8 -2 -11 -8 -7 -6 3 -8 10 -5 15 3 4 -1 11
-7 14 -9 3 -7 9 6 20 23 18 30 20 21 6z m-1705 -84 c-14 -14 -22 -2 -14 18 5
14 9 15 15 4 4 -7 4 -17 -1 -22z m1659 -13 c0 -10 -3 -13 -5 -6 -3 7 -13 9
-22 6 -15 -4 -15 -3 -2 6 22 15 30 14 29 -6z m-31 -16 c14 4 14 3 3 -5 -17
-12 -43 -4 -34 11 5 8 8 8 10 0 3 -7 12 -9 21 -6z m-68 -77 c0 -5 -5 -10 -11
-10 -5 0 -7 5 -4 10 3 6 8 10 11 10 2 0 4 -4 4 -10z m-1430 -35 c0 -12 4 -13
19 -6 22 12 45 -7 32 -28 -6 -10 -10 -9 -15 4 -3 10 -12 15 -21 11 -9 -3 -19
3 -25 14 -7 14 -7 20 0 20 5 0 10 -7 10 -15z m1343 -28 c4 3 7 2 7 -4 0 -6
-11 -10 -25 -10 -25 0 -31 7 -18 20 3 4 11 2 18 -3 7 -5 15 -7 18 -3z m-28
-47 c-8 -9 -12 -20 -8 -23 3 -4 1 -7 -5 -7 -15 0 -16 17 -2 25 6 4 8 10 6 14
-3 4 1 8 9 8 13 0 13 -3 0 -17z m-1165 -81 c0 -6 -4 -7 -10 -4 -5 3 -10 11
-10 16 0 6 5 7 10 4 6 -3 10 -11 10 -16z m1065 4 c-4 -10 -8 -24 -8 -30 0 -9
-4 -9 -12 -3 -7 5 -16 6 -20 2 -5 -4 -5 -1 -1 6 4 7 12 10 17 7 8 -6 13 8 10
28 0 4 4 7 10 7 7 0 8 -7 4 -17z m70 8 c3 -5 2 -12 -3 -15 -5 -3 -9 1 -9 9 0
17 3 19 12 6z m-162 -118 c-10 -3 -10 -10 -2 -26 9 -19 8 -20 -3 -6 -11 14
-17 15 -31 4 -9 -6 -13 -16 -9 -20 4 -5 1 -4 -7 0 -11 6 -13 4 -7 -11 6 -15 5
-16 -5 -7 -9 9 -9 16 -1 26 7 8 9 17 5 21 -4 4 1 4 11 0 15 -6 17 -4 11 6 -5
8 -4 11 3 6 6 -3 13 -2 17 4 3 5 12 10 18 9 9 0 9 -2 0 -6z m31 -11 c3 -5 -1
-9 -9 -9 -8 0 -12 4 -9 9 3 4 7 8 9 8 2 0 6 -4 9 -8z m-107 -84 c-3 -8 -6 -5
-6 6 -1 11 2 17 5 13 3 -3 4 -12 1 -19z m-26 -35 c11 -15 11 -16 -1 -5 -16 14
-34 16 -25 3 3 -5 0 -13 -6 -17 -8 -4 -9 -3 -5 4 4 7 1 12 -6 12 -9 0 -9 3 2
10 21 13 26 13 41 -7z m-551 -37 c0 -3 -4 -8 -10 -11 -5 -3 -10 -1 -10 4 0 6
5 11 10 11 6 0 10 -2 10 -4z m520 0 c0 -2 -7 -7 -16 -10 -8 -3 -12 -2 -9 4 6
10 25 14 25 6z m-40 -30 c0 -3 -4 -8 -10 -11 -5 -3 -10 -1 -10 4 0 6 5 11 10
11 6 0 10 -2 10 -4z m-347 -136 c4 0 5 4 2 10 -3 6 1 7 9 4 22 -8 20 -19 -3
-21 -11 -1 -25 6 -32 15 -11 14 -11 15 1 5 8 -7 18 -13 23 -13z"/>
<path d="M2325 2399 c-4 -6 -5 -12 -2 -15 2 -3 7 2 10 11 7 17 1 20 -8 4z"/>
<path d="M2295 2340 c-3 -5 -1 -10 4 -10 6 0 11 5 11 10 0 6 -2 10 -4 10 -3 0
-8 -4 -11 -10z"/>
<path d="M96 2186 c6 -15 4 -17 -7 -11 -8 4 -11 5 -7 0 4 -4 2 -15 -4 -24 -7
-9 -8 -13 -4 -9 5 4 15 3 23 -3 9 -9 13 -8 13 0 0 9 6 9 23 1 20 -10 21 -10 4
4 -11 8 -26 12 -35 8 -15 -5 -15 -4 -3 12 11 13 12 19 2 29 -10 9 -11 8 -5 -7z"/>
<path d="M2100 2160 c-9 -6 -10 -10 -3 -10 6 0 15 5 18 10 8 12 4 12 -15 0z"/>
<path d="M2129 2158 c-1 -7 -1 -17 0 -22 1 -5 -5 -6 -13 -3 -23 9 -28 -9 -8
-24 9 -7 14 -10 10 -5 -4 5 4 17 17 28 14 11 23 24 20 29 -9 13 -25 11 -26 -3z"/>
<path d="M139 2118 c0 -2 -2 -11 -4 -21 -3 -15 -1 -16 11 -6 7 6 11 15 8 20
-5 9 -13 12 -15 7z"/>
<path d="M176 2107 c3 -10 9 -15 12 -12 3 3 0 11 -7 18 -10 9 -11 8 -5 -6z"/>
<path d="M2050 2078 c0 -4 5 -8 11 -8 5 0 7 -5 4 -10 -4 -6 -10 -8 -15 -5 -11
7 -40 -22 -39 -38 0 -8 2 -8 6 1 2 6 8 10 13 7 9 -5 43 31 46 49 1 7 -5 13
-12 13 -8 0 -14 -4 -14 -9z"/>
<path d="M1986 2038 c3 -5 10 -6 15 -3 13 9 11 12 -6 12 -8 0 -12 -4 -9 -9z"/>
<path d="M233 2015 c-8 -9 -9 -16 -3 -20 6 -3 10 -1 10 5 0 6 4 9 8 6 5 -3 9
1 9 9 0 19 -8 18 -24 0z"/>
<path d="M1930 1960 c0 -5 5 -10 11 -10 5 0 7 5 4 10 -3 6 -8 10 -11 10 -2 0
-4 -4 -4 -10z"/>
<path d="M350 1919 c0 -5 5 -7 10 -4 6 3 10 8 10 11 0 2 -4 4 -10 4 -5 0 -10
-5 -10 -11z"/>
<path d="M435 1839 c-4 -6 -5 -12 -2 -15 2 -3 7 2 10 11 7 17 1 20 -8 4z"/>
<path d="M470 1796 c7 -7 13 -7 20 0 6 6 3 10 -10 10 -13 0 -16 -4 -10 -10z"/>
<path d="M500 1780 c-9 -6 -10 -10 -3 -10 6 0 15 5 18 10 8 12 4 12 -15 0z"/>
<path d="M506 1749 c3 -5 0 -9 -6 -9 -6 0 -8 -5 -4 -11 4 -7 9 -7 13 -2 3 6
13 12 21 15 10 3 8 6 -8 10 -12 4 -20 2 -16 -3z"/>
<path d="M1681 1706 c-9 -11 -9 -16 1 -22 7 -4 10 -4 6 1 -4 4 -3 14 3 22 6 7
9 13 6 13 -2 0 -10 -6 -16 -14z"/>
<path d="M1650 1681 c0 -6 5 -11 11 -11 5 0 7 -4 4 -10 -3 -6 1 -7 10 -4 9 4
15 7 13 8 -2 1 -11 8 -20 15 -12 9 -18 10 -18 2z"/>
<path d="M650 1641 c0 -6 4 -13 10 -16 6 -3 7 1 4 9 -7 18 -14 21 -14 7z"/>
<path d="M630 1605 c-10 -12 -8 -13 10 -10 29 6 34 11 16 18 -8 3 -20 0 -26
-8z"/>
<path d="M840 1440 c-9 -6 -10 -10 -3 -10 6 0 15 5 18 10 8 12 4 12 -15 0z"/>
<path d="M1375 1429 c-4 -6 -5 -12 -2 -15 2 -3 7 2 10 11 7 17 1 20 -8 4z"/>
<path d="M870 1386 c0 -2 12 -12 28 -21 l27 -18 -19 21 c-17 20 -36 29 -36 18z"/>
<path d="M925 1320 c-3 -6 1 -7 9 -4 18 7 21 14 7 14 -6 0 -13 -4 -16 -10z"/>
<path d="M1300 1301 c0 -6 5 -13 10 -16 6 -3 10 1 10 9 0 9 -4 16 -10 16 -5 0
-10 -4 -10 -9z"/>
<path d="M950 1290 c-8 -5 -12 -11 -9 -14 2 -3 11 -1 19 4 8 5 12 11 9 14 -2
3 -11 1 -19 -4z"/>
<path d="M995 1241 c-3 -5 -1 -12 5 -16 5 -3 10 1 10 9 0 18 -6 21 -15 7z"/>
<path d="M1046 1222 c-3 -5 1 -9 9 -9 8 0 12 4 9 9 -3 4 -7 8 -9 8 -2 0 -6 -4
-9 -8z"/>
<path d="M1179 1218 c-7 -26 -7 -48 2 -48 5 0 7 5 4 10 -3 6 1 10 9 10 8 0 18
5 22 11 4 8 -1 9 -16 4 -15 -5 -20 -4 -16 4 4 6 5 11 2 11 -3 0 -6 -1 -7 -2z"/>
<path d="M1116 1133 c-6 -14 -5 -15 5 -6 7 7 10 15 7 18 -3 3 -9 -2 -12 -12z"/>
</g>
</svg>
